<svg width="68" height="77" viewBox="0 0 68 77" fill="none" xmlns="http://www.w3.org/2000/svg">
<rect width="68" height="77" rx="12" fill="#FCFCFC"/>
<path d="M20.7995 60H17.7995V63H20.7995V60ZM20.7995 29.5518V26.5518H17.7995V29.5518H20.7995ZM21.2448 29.5518L23.7977 27.9761L22.9186 26.5518H21.2448V29.5518ZM25.6423 36.6768H28.6423V35.8255L28.1952 35.1011L25.6423 36.6768ZM25.6423 60V63H28.6423V60H25.6423ZM20.7995 24.1523H17.7995V25.0118L18.2546 25.7409L20.7995 24.1523ZM20.7995 21.0352V18.0352H17.7995V21.0352H20.7995ZM24.9743 21.0352L27.5195 19.4471L26.6385 18.0352H24.9743V21.0352ZM45.57 54.0439H48.57V53.1848L48.1152 52.4559L45.57 54.0439ZM45.57 60V63H48.57V60H45.57ZM43.1765 60L40.6316 61.5886L41.5126 63H43.1765V60ZM40.7272 41.4082H37.7272V42.2594L38.1743 42.9838L40.7272 41.4082ZM40.7272 21.0352V18.0352H37.7272V21.0352H40.7272ZM45.57 21.0352H48.57V18.0352H45.57V21.0352ZM45.57 48.5332V51.5332H48.57V48.5332H45.57ZM45.1247 48.5332L42.5718 50.1088L43.4509 51.5332H45.1247V48.5332ZM23.7995 60V29.5518H17.7995V60H23.7995ZM20.7995 32.5518H21.2448V26.5518H20.7995V32.5518ZM18.6919 31.1274L23.0894 38.2524L28.1952 35.1011L23.7977 27.9761L18.6919 31.1274ZM22.6423 36.6768V60H28.6423V36.6768H22.6423ZM25.6423 57H20.7995V63H25.6423V57ZM23.7995 24.1523V21.0352H17.7995V24.1523H23.7995ZM20.7995 24.0352H24.9743V18.0352H20.7995V24.0352ZM22.4291 22.6232L43.0248 55.632L48.1152 52.4559L27.5195 19.4471L22.4291 22.6232ZM42.57 54.0439V60H48.57V54.0439H42.57ZM45.57 57H43.1765V63H45.57V57ZM45.7213 58.4114L23.3444 22.5638L18.2546 25.7409L40.6316 61.5886L45.7213 58.4114ZM43.7272 41.4082V21.0352H37.7272V41.4082H43.7272ZM40.7272 24.0352H45.57V18.0352H40.7272V24.0352ZM42.57 21.0352V48.5332H48.57V21.0352H42.57ZM45.57 45.5332H45.1247V51.5332H45.57V45.5332ZM47.6776 46.9576L43.2802 39.8326L38.1743 42.9838L42.5718 50.1088L47.6776 46.9576Z" fill="#F7912C"/>
<path d="M10 34H58" stroke="#F7912C" stroke-width="3"/>
<path d="M10 47H58" stroke="#F7912C" stroke-width="3"/>
</svg>
